<svg xmlns="http://www.w3.org/2000/svg" viewBox="0 0 412.22 32"><defs><style>.cls-1{fill:#231f20;}</style></defs><g id="Layer_2" data-name="Layer 2"><g id="Automotive"><g id="VOLVO_HORIZ"><g id="VOLVO_HORIZ-2" data-name="VOLVO_HORIZ"><polygon class="cls-1" points="6.98 5.32 21.17 31.09 37.6 31.1 51.54 5.31 58.53 5.32 58.53 0.64 37.51 0.64 37.51 5.31 43.58 5.31 33.42 24.09 23.13 5.32 30.51 5.31 30.51 0.64 0.01 0.64 0 5.32 6.98 5.32"/><path class="cls-1" d="M187.74,5.3V.64h28.13V5.3h-7V26.35h6.5c6,0,10-4,10-9.37H230V31.07H187.74V26.35h7.09V5.3Z"/><path d="M119.53,0C105.41,0,97.9,7.05,97.9,15.89S105.13,32,119.61,32s21.63-7.15,21.63-16.11S133.66,0,119.53,0Zm-.15,27.16c-5.16-.09-7.43-5.79-7.33-11.46.1-5.87,2.91-11,7.74-10.9s7.38,5.3,7.28,11.16C127,21.5,124.69,27.26,119.38,27.16Z"/><polygon class="cls-1" points="277.95 5.32 292.14 31.09 308.57 31.1 322.51 5.31 329.5 5.32 329.5 0.64 308.48 0.64 308.48 5.31 314.55 5.31 304.39 24.09 294.1 5.32 301.48 5.31 301.48 0.64 270.98 0.64 270.97 5.32 277.95 5.32"/><path d="M390.51,0c-14.13,0-21.63,7.05-21.63,15.89S376.11,32,390.59,32s21.63-7.15,21.63-16.11S404.64,0,390.51,0Zm-.16,27.16c-5.15-.09-7.42-5.79-7.32-11.46.1-5.87,2.91-11,7.74-10.9s7.38,5.3,7.28,11.16C398,21.5,395.67,27.26,390.35,27.16Z"/></g></g></g></g></svg>